<svg xmlns="http://www.w3.org/2000/svg" viewBox="0 0 1038.24778 752.70125">
  <title>Recurso 7</title>
  <g id="ac2804cb-75d0-4012-acf8-b488678c2420" data-name="Capa 2">
    <g id="0a0cde58-9c37-4c66-8db2-9f66959c343b" data-name="Capa 2">
      <g>
        <circle cx="128.36641" cy="128.36642" r="128.36649" transform="translate(-53.17112 128.36642) rotate(-45)" fill="#b3d6f0"/>
        <g>
          <path d="M1038.24741,712.48811l-334.75621-.00037c41.83222-41.84855,79.45771-4.223,121.30626-46.07175,41.84873-41.84836,4.22321-79.47426,46.07212-121.30608,41.84873-41.84873,79.45771-4.23975,121.30626-46.07175,41.84873-41.84855,4.22321-79.47407,46.07194-121.323Z" fill="#b3d6f0"/>
          <rect x="701.58382" y="628.66702" width="208.1985" height="124.03423" fill="#000e2f"/>
          <rect x="909.78231" y="628.66702" width="128.46546" height="124.03423" transform="translate(1948.03009 1381.36827) rotate(180)" fill="#0260fb"/>
          <circle cx="701.58377" cy="690.68418" r="62.01697" transform="translate(-138.21448 176.87165) rotate(-13.09198)" fill="#b3d6f0"/>
          <g>
            <path d="M946.06263,398.22069l-8.072-8.072-13.98657,13.984-13.98527-13.984-8.072,8.072,13.98527,13.98639-13.98527,13.98527,8.072,8.0733,13.98527-13.98527,13.98657,13.98527,8.072-8.0733-13.98527-13.98527Zm-15.87184,13.98639,13.98527,13.98527-6.18543,6.18692L924.00406,418.394l-13.98527,13.98527-6.18563-6.18692,13.98528-13.98527-13.98528-13.98639,6.18563-6.18562,13.98527,13.984,13.98657-13.984,6.18543,6.18562Z" fill="#000e2f"/>
            <path d="M877.70792,398.22069l-8.072-8.072-13.98658,13.984-13.98527-13.984-8.072,8.072,13.98527,13.98639-13.98527,13.98527,8.072,8.0733,13.98527-13.98527,13.98658,13.98527,8.072-8.0733-13.98524-13.98527Zm-15.87165,13.98639,13.98512,13.98527-6.18547,6.18692L855.64934,418.394l-13.98527,13.98527-6.18562-6.18692,13.98531-13.98527-13.98531-13.98639,6.18562-6.18562,13.98527,13.984,13.98658-13.984,6.18562,6.18562Z" fill="#000e2f"/>
          </g>
        </g>
      </g>
    </g>
  </g>
</svg>
