<?xml version="1.0" encoding="utf-8"?>
<!-- Generator: Adobe Illustrator 22.0.0, SVG Export Plug-In . SVG Version: 6.00 Build 0)  -->
<svg version="1.1" xmlns="http://www.w3.org/2000/svg" xmlns:xlink="http://www.w3.org/1999/xlink" x="0px" y="0px"
	 viewBox="0 0 400 400" style="enable-background:new 0 0 400 400;" xml:space="preserve">
<style type="text/css">
	.st0{fill:#000E2F;}
	.st1{fill:#0260FB;}
	.st2{opacity:0.25;}
	.st3{fill:#FFFFFF;}
	.st4{fill:#005247;}
	.st5{opacity:0.2;fill:#D38E62;}
	.st6{fill:#D38E62;}
	.st7{fill:#184137;}
	.st8{fill:none;stroke:#184137;stroke-width:6.0176;stroke-linecap:round;stroke-linejoin:round;stroke-miterlimit:10;}
	.st9{fill:#96A9B5;}
	.st10{fill:#CB643D;}
	.st11{fill:#231F20;}
	.st12{fill:none;stroke:#FFFFFF;stroke-width:0.9344;stroke-miterlimit:10;}
	.st13{fill:#345F92;}
	.st14{fill:#254C87;}
	.st15{fill:none;stroke:#000000;stroke-width:1.4592;stroke-miterlimit:10;}
	.st16{opacity:0.6;fill:#CB643D;}
	.st17{fill:#090006;}
	.st18{fill:none;stroke:#254C87;stroke-width:1.4592;stroke-linejoin:round;stroke-miterlimit:10;}
	.st19{fill:#000209;}
	.st20{fill:#6CACFB;}
	.st21{fill:#E2E3B6;}
	.st22{fill:#BAC9D1;}
	.st23{fill:#EFEFEF;}
	.st24{fill:#E3E3E3;}
	.st25{fill:none;stroke:#EFEFEF;stroke-width:3;stroke-miterlimit:10;}
	.st26{fill:#BEF3B1;}
	.st27{clip-path:url(#SVGID_8_);}
	.st28{fill:none;stroke:#6CACFB;stroke-width:3;stroke-miterlimit:10;}
	.st29{fill:none;stroke:#000E2F;stroke-width:3;stroke-miterlimit:10;}
	.st30{fill:url(#SVGID_9_);}
	.st31{fill:url(#SVGID_10_);}
	.st32{fill:url(#SVGID_11_);}
	.st33{fill:url(#SVGID_12_);}
	.st34{fill:url(#SVGID_13_);}
	.st35{fill:url(#SVGID_14_);}
	.st36{fill:url(#SVGID_15_);}
	.st37{fill:url(#SVGID_16_);}
	.st38{fill:url(#SVGID_17_);}
	.st39{fill:url(#SVGID_18_);}
	.st40{fill:url(#SVGID_19_);}
	.st41{fill:url(#SVGID_20_);}
	.st42{fill:url(#SVGID_21_);}
	.st43{fill:url(#SVGID_22_);}
	.st44{fill:url(#SVGID_23_);}
	.st45{fill:url(#SVGID_24_);}
	.st46{fill:url(#SVGID_25_);}
	.st47{fill:url(#SVGID_26_);}
	.st48{fill:url(#SVGID_27_);}
	.st49{fill:url(#SVGID_28_);}
	.st50{fill:url(#SVGID_29_);}
	.st51{fill:url(#SVGID_30_);}
	.st52{fill:url(#SVGID_31_);}
	.st53{fill:url(#SVGID_32_);}
	.st54{fill:url(#SVGID_33_);}
	.st55{fill:url(#SVGID_34_);}
	.st56{fill:url(#SVGID_35_);}
	.st57{fill:url(#SVGID_36_);}
	.st58{fill:url(#SVGID_37_);}
	.st59{fill:url(#SVGID_38_);}
	.st60{fill:url(#SVGID_39_);}
	.st61{fill:url(#SVGID_40_);}
	.st62{fill:url(#SVGID_41_);}
	.st63{fill:url(#SVGID_42_);}
	.st64{fill:url(#SVGID_43_);}
	.st65{fill:url(#SVGID_44_);}
	.st66{fill:url(#SVGID_45_);}
	.st67{fill:url(#SVGID_46_);}
	.st68{fill:url(#SVGID_49_);}
	.st69{fill:url(#SVGID_50_);}
	.st70{fill:none;stroke:#000E2F;stroke-width:0.7983;stroke-miterlimit:10;}
	.st71{fill:url(#SVGID_51_);}
	.st72{fill:url(#SVGID_52_);}
	.st73{fill:url(#SVGID_53_);}
	.st74{fill:url(#SVGID_54_);}
	.st75{fill:url(#SVGID_55_);}
	.st76{fill:url(#SVGID_56_);}
	.st77{fill:url(#SVGID_57_);}
	.st78{fill:url(#SVGID_58_);}
	.st79{fill:url(#SVGID_59_);}
	.st80{fill:url(#SVGID_60_);}
	.st81{fill:url(#SVGID_61_);}
	.st82{fill:url(#SVGID_62_);}
	.st83{fill:none;stroke:#BEF3B1;stroke-miterlimit:10;}
	.st84{fill:none;stroke:#0260FB;stroke-width:1.2106;stroke-miterlimit:10;}
	.st85{fill:#B3D6F0;}
	.st86{fill:none;}
	.st87{opacity:0.9;}
	.st88{opacity:0.6;fill:url(#SVGID_65_);}
</style>
<g id="Capa_1">
</g>
<g id="Capa_2">
	<g>
		<linearGradient id="SVGID_2_" gradientUnits="userSpaceOnUse" x1="164.7722" y1="223.5005" x2="210.4513" y2="223.5005">
			<stop  offset="0" style="stop-color:#000E2F"/>
			<stop  offset="0.4735" style="stop-color:#0260FB"/>
			<stop  offset="0.8651" style="stop-color:#5C96FB"/>
			<stop  offset="1" style="stop-color:#7BA9FB"/>
		</linearGradient>
		<path style="fill:url(#SVGID_2_);" d="M190.5,232.9c0,9.7-2.9,18-8,24.1c5.1,4.3,11,7.5,17.8,9.7c6.6-9,10.2-20.5,10.2-33.8
			c0-27.1-15.1-46.7-39.2-52.6c-3,5.3-5.2,11.3-6.5,17.9C180.6,201.9,190.5,214.9,190.5,232.9z"/>
		<linearGradient id="SVGID_4_" gradientUnits="userSpaceOnUse" x1="126.4714" y1="164.6076" x2="170.2031" y2="424.9153">
			<stop  offset="0" style="stop-color:#000E2F"/>
			<stop  offset="0.4735" style="stop-color:#0260FB"/>
			<stop  offset="0.8651" style="stop-color:#5C96FB"/>
			<stop  offset="1" style="stop-color:#7BA9FB"/>
		</linearGradient>
		<path style="fill:url(#SVGID_4_);" d="M155.3,268.8c-21.2,0-35.2-14.5-35.2-35.9c0-17.5,9.4-30.4,24.4-34.5
			c1-7.1,2.9-13.8,5.5-19.9c-30.2,2.2-49.9,23.4-49.9,54.3c0,32.7,22,54.5,55.1,54.5c11.2,0,21.1-2.5,29.4-7.1
			c-7.3-3.3-13.7-7.6-19.2-12.8C162.3,268.3,158.9,268.8,155.3,268.8z"/>
		<linearGradient id="SVGID_6_" gradientUnits="userSpaceOnUse" x1="201.5862" y1="190.1055" x2="291.302" y2="279.8213">
			<stop  offset="0" style="stop-color:#000E2F"/>
			<stop  offset="0.4735" style="stop-color:#0260FB"/>
			<stop  offset="0.8651" style="stop-color:#5C96FB"/>
			<stop  offset="1" style="stop-color:#7BA9FB"/>
		</linearGradient>
		<path style="fill:url(#SVGID_6_);" d="M221,131.6c-7.9,0-15.4,0.9-22.4,2.6c-5.9,1.4-8.8,8.1-6,13.4c2.1,3.9,6.5,5.8,10.8,4.6
			c5.5-1.5,11.3-2.2,17.6-2.2c34.9,0,58.2,23.4,58.2,59.5c0,35.9-23.4,59.5-58.2,59.5c-7.3,0-14.1-1-20.3-3c-0.2,0.2,0.2-0.2,0,0
			c-6.7-2.1-13.2-4.7-18.3-9c-12-10.1-19-25.7-19-45.1c0-4.8,0.4-9.4,1.3-13.8c1.3-6.6,3.5-12.6,6.5-17.9c-5-1.2-10.3-1.9-16-1.9
			c-1.8,0-3.5,0.1-5.3,0.2c-2.6,6.1-4.5,12.7-5.5,19.9c-0.6,4.3-1,8.8-1,13.5c0,23.1,8,42.3,21.8,55.6c5.5,5.3,12,9.6,19.2,12.8
			c0.1,0,0.1-0.1,0.2-0.1c10.5,4.7,22.7,7.2,36.1,7.2c47.2,0,78.8-31.2,78.8-77.9C299.8,162.8,268.2,131.6,221,131.6z"/>
		<linearGradient id="SVGID_8_" gradientUnits="userSpaceOnUse" x1="159.3547" y1="178.1409" x2="159.3547" y2="112.1062">
			<stop  offset="0" style="stop-color:#000E2F"/>
			<stop  offset="0.4735" style="stop-color:#0260FB"/>
			<stop  offset="0.8651" style="stop-color:#5C96FB"/>
			<stop  offset="1" style="stop-color:#7BA9FB"/>
		</linearGradient>
		<path style="fill:url(#SVGID_8_);" d="M159.4,172.1c14.1,0,23.5-9.3,23.5-23.2c0-13.9-9.4-23.2-23.5-23.2
			c-14.1,0-23.5,9.3-23.5,23.2C135.9,162.9,145.2,172.1,159.4,172.1z M159.4,140c5,0,8.3,3.7,8.3,8.9c0,5.3-3.3,8.9-8.3,8.9
			c-5,0-8.3-3.7-8.3-8.9C151.1,143.7,154.4,140,159.4,140z"/>
	</g>
</g>
</svg>
